<svg clip-rule="evenodd" fill-rule="evenodd" stroke-linejoin="round" stroke-miterlimit="2" viewBox="0 0 442 51" xmlns="http://www.w3.org/2000/svg"><g fill="#1ea0f7" fill-rule="nonzero"><path d="m.381.005c.061 0 .118-.014.166-.039l.032.034h.182l-.107-.117c.056-.064.089-.148.089-.235 0-.181-.142-.363-.358-.363-.211 0-.363.171-.363.359 0 .183.144.361.359.361zm.002-.173c-.111 0-.163-.091-.163-.186 0-.093.05-.188.162-.188.11 0 .163.09.163.186 0 .034-.007.069-.021.099l-.039-.043h-.182l.118.128c-.012.003-.024.004-.038.004z" transform="matrix(68.5512 0 0 68.5512 -1.5069126 50.0388448)"/><path d="m.061 0h.517v-.17h-.322v-.54h-.195z" transform="matrix(68.5512 0 0 68.5512 50.9347554 50.0388448)"/><path d="m.598 0h.195v-.71h-.212l-.154.334-.153-.334h-.213v.71h.195v-.374l.119.263h.104l.119-.263z" transform="matrix(68.5512 0 0 68.5512 91.0372074 50.0388448)"/><path d="m.019-.159c0 .097.079.169.184.169.069 0 .132-.032.179-.092l.004.019c.01.048.044.073.112.073.021 0 .049-.003.08-.01v-.16c-.027-.002-.036-.014-.036-.05v-.102c0-.148-.095-.224-.262-.224-.09 0-.167.022-.237.067l.055.118c.056-.037.104-.057.163-.057.064 0 .091.024.091.073v.016c-.027-.013-.065-.02-.106-.02-.133 0-.227.074-.227.18zm.308.013c-.018.012-.044.02-.067.02-.036 0-.062-.021-.062-.05 0-.034.035-.06.081-.06.021 0 .051.006.073.014v.039c0 .013-.01.027-.025.037z" transform="matrix(68.5512 0 0 68.5512 149.0315226 50.0388448)"/><path d="m.405-.364v-.171c-.005-.001-.01-.001-.024-.001-.063 0-.122.04-.159.11v-.1h-.174v.526h.19v-.312c.029-.037.094-.052.167-.052z" transform="matrix(68.5512 0 0 68.5512 190.0936914 50.0388448)"/><path d="m.395 0h.201l-.199-.296.181-.23h-.2l-.14.195v-.399h-.19v.73h.19v-.15l.038-.042z" transform="matrix(68.5512 0 0 68.5512 218.6109906 50.0388448)"/><path d="m.02-.264c0 .161.103.274.248.274.069 0 .135-.028.171-.092l.004.019c.01.049.048.073.112.073.02 0 .046-.003.08-.01v-.16c-.027-.002-.036-.014-.036-.05v-.52h-.19v.282c-.03-.055-.091-.088-.159-.088-.135 0-.23.117-.23.272zm.39.06c-.025.036-.054.054-.09.054-.062 0-.104-.044-.104-.11 0-.064.041-.116.096-.116.04 0 .08.032.098.078z" transform="matrix(68.5512 0 0 68.5512 256.9311114 50.0388448)"/><path d="m.307.01c.188 0 .288-.129.288-.273 0-.145-.1-.273-.288-.273s-.288.128-.288.273c0 .144.1.273.288.273zm-.093-.273c0-.07.039-.113.093-.113s.093.043.093.113-.039.113-.093.113-.093-.043-.093-.113z" transform="matrix(68.5512 0 0 68.5512 302.5176594 50.0388448)"/><path d="m.693-.526-.125.348-.035-.118.096-.23h-.153l-.045.154-.045-.154h-.153l.096.23-.035.118-.125-.348h-.179l.215.526h.155l.071-.2.071.2h.155l.215-.526z" transform="matrix(68.5512 0 0 68.5512 343.3056234 50.0388448)"/><path d="m.577 0v-.346c0-.072-.017-.19-.16-.19-.091 0-.161.031-.198.088v-.078h-.171v.526h.19v-.295c.017-.044.059-.075.091-.075.031 0 .058.022.058.074v.296z" transform="matrix(68.5512 0 0 68.5512 402.3967578 50.0388448)"/></g></svg>