<?xml version="1.0" encoding="UTF-8" standalone="no"?>
<!DOCTYPE svg PUBLIC "-//W3C//DTD SVG 1.1//EN" "http://www.w3.org/Graphics/SVG/1.1/DTD/svg11.dtd">
<svg width="100%" height="100%" viewBox="0 0 645 426" version="1.1" xmlns="http://www.w3.org/2000/svg" xmlns:xlink="http://www.w3.org/1999/xlink" xml:space="preserve" xmlns:serif="http://www.serif.com/" style="fill-rule:evenodd;clip-rule:evenodd;stroke-linejoin:round;stroke-miterlimit:2;">
    <g transform="matrix(1,0,0,1,-189.569,-299.161)">
        <g transform="matrix(1.09882,0,0,1.09882,-50.6,-50.5981)">
            <path d="M805.469,511.988C783.695,482.808 743.967,434.621 692.054,393.076C642.081,353.083 580.498,318.292 512.012,318.303C443.54,318.292 381.958,353.083 331.985,393.076C280.072,434.621 240.343,482.808 218.569,511.988C242.765,544.436 288.485,599.571 348.262,643.405C395.072,677.731 450.794,705.707 512.012,705.697L512.027,705.697C573.245,705.707 628.967,677.731 675.776,643.405C735.553,599.571 781.274,544.436 805.469,511.988ZM487.842,401.823L487.842,480.091L439.527,480.091L512,564.643L584.473,480.091L536.158,480.091L536.158,401.823C586.843,412.894 624.841,458.078 624.841,512.067C624.841,574.346 574.279,624.909 512,624.909C449.721,624.909 399.159,574.346 399.159,512.067C399.159,458.078 437.157,412.894 487.842,401.823Z" style="fill:rgb(30,160,247);"/>
        </g>
    </g>
</svg>
