<?xml version="1.0" encoding="UTF-8" standalone="no"?>
<!DOCTYPE svg PUBLIC "-//W3C//DTD SVG 1.1//EN" "http://www.w3.org/Graphics/SVG/1.1/DTD/svg11.dtd">
<svg width="100%" height="100%" viewBox="0 0 442 51" version="1.1" xmlns="http://www.w3.org/2000/svg" xmlns:xlink="http://www.w3.org/1999/xlink" xml:space="preserve" xmlns:serif="http://www.serif.com/" style="fill-rule:evenodd;clip-rule:evenodd;stroke-linejoin:round;stroke-miterlimit:2;">
    <g transform="matrix(1,0,0,1,-190.05,-274.636)">
        <g transform="matrix(5.7126,0,0,5.7126,-942.546,-2568.46)">
            <g transform="matrix(12,0,0,12,197.999,506.448)">
                <path d="M0.381,0.005C0.442,0.005 0.499,-0.009 0.547,-0.034L0.579,-0L0.761,-0L0.654,-0.117C0.71,-0.181 0.743,-0.265 0.743,-0.352C0.743,-0.533 0.601,-0.715 0.385,-0.715C0.174,-0.715 0.022,-0.544 0.022,-0.356C0.022,-0.173 0.166,0.005 0.381,0.005ZM0.383,-0.168C0.272,-0.168 0.22,-0.259 0.22,-0.354C0.22,-0.447 0.27,-0.542 0.382,-0.542C0.492,-0.542 0.545,-0.452 0.545,-0.356C0.545,-0.322 0.538,-0.287 0.524,-0.257L0.485,-0.3L0.303,-0.3L0.421,-0.172C0.409,-0.169 0.397,-0.168 0.383,-0.168Z" style="fill:rgb(30,160,247);fill-rule:nonzero;"/>
            </g>
            <g transform="matrix(12,0,0,12,207.179,506.448)">
                <path d="M0.061,-0L0.578,-0L0.578,-0.17L0.256,-0.17L0.256,-0.71L0.061,-0.71L0.061,-0Z" style="fill:rgb(30,160,247);fill-rule:nonzero;"/>
            </g>
            <g transform="matrix(12,0,0,12,214.199,506.448)">
                <path d="M0.598,-0L0.793,-0L0.793,-0.71L0.581,-0.71L0.427,-0.376L0.274,-0.71L0.061,-0.71L0.061,-0L0.256,-0L0.256,-0.374L0.375,-0.111L0.479,-0.111L0.598,-0.374L0.598,-0Z" style="fill:rgb(30,160,247);fill-rule:nonzero;"/>
            </g>
            <g transform="matrix(12,0,0,12,224.351,506.448)">
                <path d="M0.019,-0.159C0.019,-0.062 0.098,0.01 0.203,0.01C0.272,0.01 0.335,-0.022 0.382,-0.082L0.386,-0.063C0.396,-0.015 0.43,0.01 0.498,0.01C0.519,0.01 0.547,0.007 0.578,-0L0.578,-0.16C0.551,-0.162 0.542,-0.174 0.542,-0.21L0.542,-0.312C0.542,-0.46 0.447,-0.536 0.28,-0.536C0.19,-0.536 0.113,-0.514 0.043,-0.469L0.098,-0.351C0.154,-0.388 0.202,-0.408 0.261,-0.408C0.325,-0.408 0.352,-0.384 0.352,-0.335L0.352,-0.319C0.325,-0.332 0.287,-0.339 0.246,-0.339C0.113,-0.339 0.019,-0.265 0.019,-0.159ZM0.327,-0.146C0.309,-0.134 0.283,-0.126 0.26,-0.126C0.224,-0.126 0.198,-0.147 0.198,-0.176C0.198,-0.21 0.233,-0.236 0.279,-0.236C0.3,-0.236 0.33,-0.23 0.352,-0.222L0.352,-0.183C0.352,-0.17 0.342,-0.156 0.327,-0.146Z" style="fill:rgb(30,160,247);fill-rule:nonzero;"/>
            </g>
            <g transform="matrix(12,0,0,12,231.539,506.448)">
                <path d="M0.405,-0.364L0.405,-0.535C0.4,-0.536 0.395,-0.536 0.381,-0.536C0.318,-0.536 0.259,-0.496 0.222,-0.426L0.222,-0.526L0.048,-0.526L0.048,-0L0.238,-0L0.238,-0.312C0.267,-0.349 0.332,-0.364 0.405,-0.364Z" style="fill:rgb(30,160,247);fill-rule:nonzero;"/>
            </g>
            <g transform="matrix(12,0,0,12,236.531,506.448)">
                <path d="M0.395,-0L0.596,-0L0.397,-0.296L0.578,-0.526L0.378,-0.526L0.238,-0.331L0.238,-0.73L0.048,-0.73L0.048,-0L0.238,-0L0.238,-0.15L0.276,-0.192L0.395,-0Z" style="fill:rgb(30,160,247);fill-rule:nonzero;"/>
            </g>
            <g transform="matrix(12,0,0,12,243.239,506.448)">
                <path d="M0.02,-0.264C0.02,-0.103 0.123,0.01 0.268,0.01C0.337,0.01 0.403,-0.018 0.439,-0.082L0.443,-0.063C0.453,-0.014 0.491,0.01 0.555,0.01C0.575,0.01 0.601,0.007 0.635,-0L0.635,-0.16C0.608,-0.162 0.599,-0.174 0.599,-0.21L0.599,-0.73L0.409,-0.73L0.409,-0.448C0.379,-0.503 0.318,-0.536 0.25,-0.536C0.115,-0.536 0.02,-0.419 0.02,-0.264ZM0.41,-0.204C0.385,-0.168 0.356,-0.15 0.32,-0.15C0.258,-0.15 0.216,-0.194 0.216,-0.26C0.216,-0.324 0.257,-0.376 0.312,-0.376C0.352,-0.376 0.392,-0.344 0.41,-0.298L0.41,-0.204Z" style="fill:rgb(30,160,247);fill-rule:nonzero;"/>
            </g>
            <g transform="matrix(12,0,0,12,251.219,506.448)">
                <path d="M0.307,0.01C0.495,0.01 0.595,-0.119 0.595,-0.263C0.595,-0.408 0.495,-0.536 0.307,-0.536C0.119,-0.536 0.019,-0.408 0.019,-0.263C0.019,-0.119 0.119,0.01 0.307,0.01ZM0.214,-0.263C0.214,-0.333 0.253,-0.376 0.307,-0.376C0.361,-0.376 0.4,-0.333 0.4,-0.263C0.4,-0.193 0.361,-0.15 0.307,-0.15C0.253,-0.15 0.214,-0.193 0.214,-0.263Z" style="fill:rgb(30,160,247);fill-rule:nonzero;"/>
            </g>
            <g transform="matrix(12,0,0,12,258.359,506.448)">
                <path d="M0.693,-0.526L0.568,-0.178L0.533,-0.296L0.629,-0.526L0.476,-0.526L0.431,-0.372L0.386,-0.526L0.233,-0.526L0.329,-0.296L0.294,-0.178L0.169,-0.526L-0.01,-0.526L0.205,-0L0.36,-0L0.431,-0.2L0.502,-0L0.657,-0L0.872,-0.526L0.693,-0.526Z" style="fill:rgb(30,160,247);fill-rule:nonzero;"/>
            </g>
            <g transform="matrix(12,0,0,12,268.703,506.448)">
                <path d="M0.577,-0L0.577,-0.346C0.577,-0.418 0.56,-0.536 0.417,-0.536C0.326,-0.536 0.256,-0.505 0.219,-0.448L0.219,-0.526L0.048,-0.526L0.048,-0L0.238,-0L0.238,-0.295C0.255,-0.339 0.297,-0.37 0.329,-0.37C0.36,-0.37 0.387,-0.348 0.387,-0.296L0.387,-0L0.577,-0Z" style="fill:rgb(30,160,247);fill-rule:nonzero;"/>
            </g>
        </g>
    </g>
</svg>
