<?xml version="1.0" encoding="UTF-8"?>
<!--Generator: Apple Native CoreSVG 326-->
<!DOCTYPE svg
PUBLIC "-//W3C//DTD SVG 1.1//EN"
       "http://www.w3.org/Graphics/SVG/1.1/DTD/svg11.dtd">
<svg version="1.1" xmlns="http://www.w3.org/2000/svg" xmlns:xlink="http://www.w3.org/1999/xlink" viewBox="0 0 40.9688 30.3281">
 <g>
  <rect height="30.3281" opacity="0" width="40.9688" x="0" y="0"/>
  <path d="M30.5938 17.2969C35.2656 18.3906 38.1719 20.1719 38.1719 22.0469C38.1719 25.0938 30.3906 27.9062 20.2969 27.9062C10.2031 27.9062 2.42188 25.0938 2.42188 22.0469C2.42188 20.1875 5.25 18.4375 9.82812 17.3125L8.64062 15.0938C3.25 16.5156 0 19 0 22.0469C0 26.9531 8.4375 30.3281 20.2969 30.3281C32.1719 30.3281 40.5938 26.9531 40.5938 22.0469C40.5938 18.9219 37.1562 16.375 31.5469 14.9844ZM32 6.45312L32 9.71875C32 16.4688 27.6875 21.0625 21.0156 21.0625L19.5625 21.0625C12.875 21.0625 8.59375 16.5 8.59375 9.71875L8.59375 6.45312L6.07812 6.45312L6.07812 9.71875C6.07812 17.8594 11.5 23.5781 19.5625 23.5781L21.0156 23.5781C29.0781 23.5781 34.5156 17.8438 34.5156 9.71875L34.5156 6.45312ZM20.2969 12.8906C28.7656 12.8906 34.5156 10.2812 34.5156 6.45312C34.5156 2.60938 28.7812 0 20.2969 0C11.8125 0 6.07812 2.60938 6.07812 6.45312C6.07812 10.2812 11.8281 12.8906 20.2969 12.8906ZM20.2969 10.375C13.5625 10.375 8.59375 8.67188 8.59375 6.45312C8.59375 4.23438 13.5625 2.51562 20.2969 2.51562C27.0312 2.51562 32 4.23438 32 6.45312C32 8.67188 27.0312 10.375 20.2969 10.375ZM32.7656 16.4688L34.0469 16.4688C37.6406 16.4688 39.7969 14.5781 39.7969 11.4375C39.7969 8.32812 37.625 6.42188 34.0469 6.42188L33 6.42188L33 8.9375L34.0469 8.9375C36.0781 8.9375 37.2812 9.875 37.2812 11.4375C37.2812 13 36.0781 13.9531 34.0469 13.9531L32.7656 13.9531Z" fill="black" fill-opacity="0.85"/>
 </g>
</svg>
